<?xml version="1.0" standalone="no"?>
<!DOCTYPE svg PUBLIC "-//W3C//DTD SVG 20010904//EN"
 "http://www.w3.org/TR/2001/REC-SVG-20010904/DTD/svg10.dtd">
<svg version="1.0" xmlns="http://www.w3.org/2000/svg"
 width="120.000000pt" height="81.000000pt" viewBox="0 0 120.000000 81.000000"
 preserveAspectRatio="xMidYMid meet">
<metadata>
Created by potrace 1.16, written by Peter Selinger 2001-2019
</metadata>
<g transform="translate(0.000000,81.000000) scale(0.100000,-0.100000)"
fill="#000000" stroke="none">
<path d="M200 670 c-74 -55 -135 -105 -135 -111 0 -28 28 -15 136 64 63 46
120 87 127 91 17 10 92 -44 92 -67 0 -16 -6 -14 -40 13 l-40 32 -140 -102
c-78 -56 -139 -107 -137 -114 2 -6 26 -12 53 -14 l49 -3 -3 -99 c-2 -55 -7
-100 -12 -100 -5 0 -7 7 -4 15 4 8 -1 17 -9 21 -8 3 -13 13 -10 24 6 23 -11
34 -44 25 -19 -4 -24 -11 -20 -25 3 -11 1 -20 -5 -20 -5 0 -8 -8 -6 -18 2 -9
-5 -24 -16 -33 -17 -14 -18 -19 -7 -33 12 -14 56 -16 393 -16 341 0 383 -2
409 -17 19 -11 29 -25 29 -41 0 -86 106 -140 190 -97 30 15 60 61 60 89 0 8
11 26 25 40 33 33 33 79 0 112 -14 14 -25 33 -25 43 0 34 -44 85 -87 100 -35
13 -46 13 -79 0 -44 -17 -84 -69 -84 -109 0 -47 -44 -60 -209 -60 l-141 0 0
100 0 100 50 0 c69 0 66 23 -11 77 -32 24 -59 50 -59 59 0 12 12 7 50 -20 56
-40 70 -44 70 -18 0 10 -26 34 -60 57 -56 38 -59 42 -62 85 -3 41 -5 45 -31
48 -22 3 -30 -1 -34 -17 -5 -20 -6 -20 -37 3 -17 13 -36 26 -41 29 -6 3 -71
-39 -145 -93z m243 -98 c42 -30 77 -61 77 -69 0 -10 -35 -13 -170 -13 -118 0
-170 3 -170 11 0 6 -7 8 -17 4 -23 -8 -15 -1 65 59 35 27 65 46 68 44 2 -3
-16 -19 -41 -37 -25 -18 -45 -35 -45 -38 0 -3 21 11 48 30 26 20 47 40 47 47
0 16 26 29 44 23 9 -3 51 -31 94 -61z m35 -204 l-3 -103 -42 -3 -43 -3 0 75 0
76 -55 0 -55 0 0 -75 0 -75 -30 0 -30 0 0 95 0 95 91 0 c57 0 88 4 84 10 -4 6
12 10 40 10 l46 0 -3 -102z m565 -95 c23 -21 22 -66 -2 -87 -43 -39 -131 -11
-131 43 0 61 82 89 133 44z"/>
</g>
</svg>
